<?xml version="1.0" encoding="utf-8"?>
<!-- Generator: Adobe Illustrator 18.1.1, SVG Export Plug-In . SVG Version: 6.00 Build 0)  -->
<!DOCTYPE svg PUBLIC "-//W3C//DTD SVG 1.1//EN" "http://www.w3.org/Graphics/SVG/1.1/DTD/svg11.dtd">
<svg version="1.1" id="Layer_1" xmlns="http://www.w3.org/2000/svg" xmlns:xlink="http://www.w3.org/1999/xlink" x="0px" y="0px"
	 viewBox="0 0 200 200" style="enable-background:new 0 0 200 200;" xml:space="preserve">
<path d="M92,49.3c3.8,5.3,5.7,11.5,5.7,18.9c0,7.5-1.9,13.6-5.7,18.2c-2.1,2.6-5.3,4.9-9.4,7c6.3,2.3,11,5.9,14.3,10.9
	c3.2,5,4.8,11,4.8,18.1c0,7.3-1.8,13.9-5.5,19.7c-2.3,3.8-5.2,7.1-8.7,9.7c-3.9,3-8.6,5.1-13.9,6.2c-5.4,1.1-11.2,1.7-17.4,1.7H0.3
	V36.2H60C75,36.4,85.7,40.8,92,49.3z M24.9,57.6v27.2h30c5.3,0,9.7-1,13.1-3.1c3.3-2,5-5.7,5-10.8c0-5.8-2.2-9.6-6.6-11.4
	c-3.8-1.3-8.7-1.9-14.6-1.9H24.9z M24.9,105.3v32.9h30c5.4,0,9.5-0.7,12.5-2.2c5.4-2.7,8.1-7.8,8.1-15.4c0-6.4-2.6-10.8-7.9-13.2
	c-2.9-1.3-7-2-12.3-2.1H24.9z M176.2,70.2c6.4,2.8,11.6,7.4,15.8,13.5c3.8,5.4,6.2,11.7,7.3,18.9c0.6,4.2,0.9,10.2,0.8,18.1h-66.5
	c0.4,9.2,3.5,15.6,9.6,19.3c3.6,2.3,8,3.4,13.2,3.4c5.4,0,9.8-1.4,13.2-4.2c1.9-1.5,3.5-3.6,4.9-6.3h24.4
	c-0.6,5.4-3.6,10.9-8.8,16.5c-8.2,8.9-19.6,13.3-34.3,13.3c-12.2,0-22.9-3.7-32.1-11.2c-9.3-7.5-13.9-19.7-13.9-36.5
	c0-15.8,4.2-28,12.6-36.4c8.4-8.4,19.3-12.7,32.6-12.7C162.7,65.9,169.8,67.3,176.2,70.2z M140.5,90.8c-3.4,3.5-5.5,8.2-6.4,14.1
	h41.1c-0.4-6.3-2.6-11.1-6.4-14.4c-3.8-3.3-8.5-4.9-14.2-4.9C148.6,85.6,143.8,87.4,140.5,90.8z M180.8,41.9h-52.9v15.4h52.9V41.9z"
	/>
</svg>
