<?xml version="1.0" encoding="utf-8"?>
<!-- Generator: Adobe Illustrator 18.1.1, SVG Export Plug-In . SVG Version: 6.00 Build 0)  -->
<!DOCTYPE svg PUBLIC "-//W3C//DTD SVG 1.1//EN" "http://www.w3.org/Graphics/SVG/1.1/DTD/svg11.dtd">
<svg version="1.1" id="Layer_1" xmlns="http://www.w3.org/2000/svg" xmlns:xlink="http://www.w3.org/1999/xlink" x="0px" y="0px"
	 viewBox="0 0 200 200" style="enable-background:new 0 0 200 200;" xml:space="preserve">
<style type="text/css">
	.st0{fill:#010101;}
</style>
<path class="st0" d="M6.4,47.7c5.4,2.9,80.4,43.2,83.2,44.7c2.8,1.5,6.4,2.2,10.1,2.2s7.3-0.7,10.1-2.2c2.8-1.5,77.8-41.8,83.2-44.7
	c5.4-2.9,10.6-14.3,0.6-14.3H5.8C-4.1,33.4,1,44.7,6.4,47.7z M195.4,72.1c-6.2,3.2-82,42.7-85.7,44.7c-3.8,2-6.4,2.2-10.1,2.2
	s-6.3-0.2-10.1-2.2c-3.8-2-79.1-41.5-85.3-44.7C0,69.8,0,72.5,0,74.5c0,2,0,80.9,0,80.9c0,4.7,6.3,11.1,11.1,11.1h177.5
	c4.8,0,11.1-6.4,11.1-11.1c0,0,0-78.9,0-80.9C199.7,72.5,199.8,69.8,195.4,72.1z"/>
</svg>
