<?xml version="1.0" encoding="utf-8"?>
<!-- Generator: Adobe Illustrator 18.1.1, SVG Export Plug-In . SVG Version: 6.00 Build 0)  -->
<!DOCTYPE svg PUBLIC "-//W3C//DTD SVG 1.1//EN" "http://www.w3.org/Graphics/SVG/1.1/DTD/svg11.dtd">
<svg version="1.1" id="Layer_1" xmlns="http://www.w3.org/2000/svg" xmlns:xlink="http://www.w3.org/1999/xlink" x="0px" y="0px"
	 viewBox="0 0 200 200" style="enable-background:new 0 0 200 200;" xml:space="preserve">
<path d="M161.4,0H38.7C17.4,0,0,17.3,0,38.6v40.8v81.9C0,182.6,17.4,200,38.7,200h122.8c21.3,0,38.7-17.3,38.7-38.6V79.5V38.6
	C200.1,17.3,182.8,0,161.4,0z M172.5,23.1l4.4,0v4.4v29.5L143.1,57L143,23.1L172.5,23.1z M71.5,79.5c6.4-8.9,16.8-14.7,28.6-14.7
	c11.8,0,22.2,5.8,28.5,14.7c4.2,5.8,6.7,12.9,6.7,20.5c0,19.4-15.8,35.2-35.2,35.2c-19.4,0-35.2-15.8-35.2-35.2
	C64.8,92.3,67.3,85.2,71.5,79.5z M180.6,161.3c0,10.6-8.6,19.2-19.2,19.2H38.7c-10.6,0-19.2-8.6-19.2-19.2V79.5h29.9
	c-2.6,6.4-4,13.3-4,20.5c0,30.2,24.5,54.7,54.7,54.7c30.2,0,54.7-24.5,54.7-54.7c0-7.3-1.5-14.2-4-20.5h29.9V161.3z"/>
</svg>
