<?xml version="1.0" encoding="utf-8"?>
<!-- Generator: Adobe Illustrator 21.1.0, SVG Export Plug-In . SVG Version: 6.00 Build 0)  -->
<!DOCTYPE svg PUBLIC "-//W3C//DTD SVG 1.1//EN" "http://www.w3.org/Graphics/SVG/1.1/DTD/svg11.dtd">
<svg version="1.1" id="Layer_1" xmlns="http://www.w3.org/2000/svg" xmlns:xlink="http://www.w3.org/1999/xlink" x="0px" y="0px"
	 viewBox="0 0 200 200" style="enable-background:new 0 0 200 200;" xml:space="preserve">
<path d="M0.5,164.3c0-42.9,0-85.8,0-128.6c0-0.1,0.1-0.2,0.1-0.4c0.3-1.9,0.4-3.9,0.8-5.7c3.9-17,18.9-29,36.4-29
	c41.4,0,82.9,0,124.3,0c3.2,0,6.3,0.4,9.4,1.2c16.6,4.4,27.9,19.1,27.9,36.4c0,41.3,0,82.5,0,123.8c0,2.6-0.2,5.2-0.8,7.8
	c-3.5,17.3-18.9,29.8-36.5,29.8c-41.4,0-82.9,0-124.3,0c-6.6,0-12.8-1.6-18.4-4.9c-10.2-6-16.3-14.8-18.4-26.4
	C0.8,166.9,0.7,165.6,0.5,164.3z M76.6,76.9c0,30.9,0,61.6,0,92.4c10.5,0,20.9,0,31.4,0c0-0.3,0-0.6,0-0.8c0-15.5,0-31.1,0-46.6
	c0-2.2,0-4.4,0-6.6c0.1-2.2,0.4-4.4,1.3-6.5c2.8-6.3,8-10.7,16.1-10.1c5.3,0.4,8.9,3.1,10.8,8.1c1.4,3.7,1.8,7.5,1.8,11.3
	c0,16.8,0,33.6,0,50.4c0,0.3,0,0.5,0,0.8c10.4,0,20.7,0,31.2,0c0-0.3,0-0.6,0-0.8c0-17,0-34,0-50.9c0-3.3-0.2-6.6-0.5-9.9
	c-0.4-4.5-1.5-8.9-3.3-13.1c-3.5-8.3-9.4-14.3-18-17.4c-5.8-2.1-11.9-2.5-18-1.8c-4.9,0.6-9.4,2.3-13.3,5.3
	c-3.1,2.4-5.5,5.3-7.7,8.5c-0.1,0.2-0.3,0.4-0.4,0.6c-0.1,0-0.1,0-0.2-0.1c0-4.2,0-8.5,0-12.8C97.3,76.9,86.9,76.9,76.6,76.9z
	 M61.9,76.9c-10.4,0-20.7,0-31,0c0,0.3,0,0.6,0,0.9c0,13.1,0.1,26.3,0.1,39.4c0,17.1,0.1,34.2,0.1,51.4c0,0.6,0.1,0.8,0.8,0.8
	c9.8,0,19.6,0,29.4,0c0.2,0,0.4,0,0.6,0C61.9,138.5,61.9,107.7,61.9,76.9z M46,33.4c-1.5,0.2-3,0.3-4.5,0.6C34.1,35.5,29,41.5,29,49
	c0,6.6,3,11.4,9,14.2c3.9,1.8,8.1,1.9,12.3,1.1c7.4-1.5,12.4-7.4,12.5-14.9c0-5.3-2-9.7-6.3-12.8C53.4,34.4,49.8,33.6,46,33.4z"/>
</svg>
